# xmcd CD database file
#
# Track frame offsets:
#	150
#	11250
#	30022
#	48755
#	65707
#	88417
#	101975
#	112840
#	122522
#	146399
#	157912
#	174850
#	195820
#	211665
#
# Disc length: 3243 seconds
#
# Revision: 2
# Processed by: cddbd v1.4PL0 Copyright (c) Steve Scherf et al.
# Submitted via: CDex 1.50beta9
#
DISCID=9e0ca90e
DTITLE=Görel Crona - Sjunde ön
DYEAR=1997
DGENRE=Pop
TTITLE0=Röda Skor
TTITLE1=Min Vilda Längtan
TTITLE2=En Ljummen Kväll I Maj
TTITLE3=Höst Röst
TTITLE4=Utan Dej
TTITLE5=Stockholm
TTITLE6=Rafael
TTITLE7=Kan Du
TTITLE8=Fader Okänd
TTITLE9=Kärlek Kommer Kärlek Går
TTITLE10=En Doft Av Apelsin
TTITLE11=Eve
TTITLE12=Det Var Då
TTITLE13=Sjunde  ön
EXTD=YEAR: 1997
EXTT0=
EXTT1=
EXTT2=
EXTT3=
EXTT4=
EXTT5=
EXTT6=
EXTT7=
EXTT8=
EXTT9=
EXTT10=
EXTT11=
EXTT12=
EXTT13=
PLAYORDER=
